<?xml version="1.0" encoding="utf-8"?>
<!-- Generator: Adobe Illustrator 21.1.0, SVG Export Plug-In . SVG Version: 6.00 Build 0)  -->
<svg version="1.1" id="Layer_1" xmlns="http://www.w3.org/2000/svg" xmlns:xlink="http://www.w3.org/1999/xlink" x="0px" y="0px"
	 viewBox="0 0 88 86" style="enable-background:new 0 0 88 86;" xml:space="preserve">
<g>
	<polygon points="-0.1,47.3 14.4,69.4 72.4,69.4 86.9,47.3 	"/>
	<path d="M59.4,55.3H27.5c-4.5,0-8.1-6.8-8.1-15.4s3.6-15.4,8.1-15.4h31.9c4.5,0,8.1,6.8,8.1,15.4S63.9,55.3,59.4,55.3z M27.5,26.9
		c-3.5,0-6.4,5.7-6.4,13s2.9,13,6.4,13h31.9c3.5,0,6.4-5.7,6.4-13s-2.9-13-6.4-13C59.4,26.9,27.5,26.9,27.5,26.9z"/>
	<path d="M25.4,26.4c-3.6,2.9-5.5,9.9-0.6,11.9c2.3,0.9,4.8-1.1,7.1-0.2c0.7,0.2,1.5,1.5,2.3,1.8c0.9,0.2,1.7,0.4,2.6,0.2
		c2.3-0.4,3.8-2.6,5.8-2.9c2.2-0.4,3.6,1.3,5.7,2c4.2,1.3,6.8-4.6,11.2-2.4c1.7,0.9,4.6,4.4,5.4,0.7c1.7-8.8-4.5-9.5-5.5-11.4
		L25.4,26.4z"/>
</g>
</svg>
