<?xml version="1.0" encoding="utf-8"?>
<!-- Generator: Adobe Illustrator 21.1.0, SVG Export Plug-In . SVG Version: 6.00 Build 0)  -->
<svg version="1.1" id="Layer_1" xmlns="http://www.w3.org/2000/svg" xmlns:xlink="http://www.w3.org/1999/xlink" x="0px" y="0px"
	 viewBox="0 0 80.1 80.1" style="enable-background:new 0 0 80.1 80.1;" xml:space="preserve">
<path d="M0,40c0,22.1,18,40,40,40c22.1,0,40-18,40-40S62.1,0,40,0S0,18,0,40z M2,39c0.3-9.7,4.2-18.5,10.5-25.1l3,3
	c-1.3,0.7-2.6,1.5-3.5,2.7c-1.4,1.9-1.6,4.2-1.8,6.5c-0.1,1.4-0.3,2.8-0.7,4c-0.4,1.1-1,2.2-1.7,3.4c-1,1.7-2.1,3.5-2.3,5.5L2,39
	L2,39z M39,37.5L19,17.5c1.2-0.5,2.4-1.1,3.4-1.8c1.2-0.8,2.1-2,3.1-3.1c1.4-1.6,2.7-3.1,4.5-3.7c1.6-0.5,3.6-0.1,5.6,0.3
	c1.1,0.2,2.3,0.5,3.5,0.6v11c-0.8-0.6-1.8-1-2.9-1c-2.7,0-4.8,2.2-4.8,4.8s2.2,4.8,4.8,4.8c1.1,0,2.1-0.4,2.9-1V37.5z M36.1,27.5
	c-1.5,0-2.8-1.3-2.8-2.8s1.3-2.8,2.8-2.8s2.8,1.3,2.8,2.8S37.7,27.5,36.1,27.5z M17.5,16l-3.5-3.5C20.5,6.2,29.3,2.3,39,2v5.8
	c-1-0.1-2-0.3-3.1-0.6c-2.2-0.5-4.5-1-6.7-0.3c-2.2,0.7-3.8,2.5-5.3,4.3c-0.9,1.1-1.8,2.1-2.8,2.8c-1,0.7-2.2,1.3-3.5,1.8
	C17.6,15.9,17.5,15.9,17.5,16z M41,2c9.7,0.3,18.5,4.2,25.1,10.4L62.6,16c-0.1,0-0.1-0.1-0.2-0.1c-1.3-0.6-2.5-1.1-3.5-1.8
	c-1-0.7-1.9-1.7-2.8-2.8C54.6,9.5,53,7.7,50.7,7c-2.1-0.7-4.4-0.2-6.7,0.3c-1,0.2-2.1,0.5-3.1,0.6C41,7.9,41,2,41,2z M61.1,17.5
	L50.8,27.8l-3.5-3.6c-0.8-0.8-2-0.8-2.8,0l-1.1,1.1c-0.4,0.4-0.6,0.9-0.6,1.4s0.2,1,0.6,1.4l3.6,3.7L41,37.5V9.9
	c1.2-0.1,2.3-0.4,3.5-0.6c1.4-0.3,2.7-0.6,3.9-0.6c0.6,0,1.2,0.1,1.7,0.2c1.7,0.6,3.1,2.1,4.5,3.7c1,1.1,2,2.2,3.1,3.1
	C58.7,16.4,59.9,17,61.1,17.5z M48.3,30.3l-3.5-3.6l1.1-1.1l3.5,3.6L48.3,30.3z M63.1,18.3c1.4,0.6,2.6,1.4,3.4,2.4
	c1,1.4,1.2,3.4,1.4,5.5c0.1,1.5,0.3,3,0.7,4.4c0.4,1.3,1.2,2.6,1.9,3.8c0.9,1.5,1.7,3,2,4.4H42.4L63.1,18.3z M54.6,41.4
	c1.5,0,2.8,1.3,2.8,2.8S56.2,47,54.6,47c-1.5,0-2.8-1.3-2.8-2.8S53.1,41.4,54.6,41.4z M72.6,41c-0.3,1.5-1.1,2.9-2,4.4
	c-0.7,1.2-1.5,2.5-1.9,3.8c-0.5,1.4-0.6,2.9-0.7,4.4c-0.2,2.1-0.4,4.1-1.4,5.5c-0.8,1.1-2,1.8-3.4,2.4L42.4,41h8.7
	c-0.8,0.9-1.3,2-1.3,3.3c0,2.7,2.2,4.8,4.8,4.8s4.8-2.2,4.8-4.8c0-1.3-0.5-2.4-1.3-3.3H72.6z M61.1,62.4c-1.2,0.5-2.4,1.1-3.4,1.8
	c-1.2,0.8-2.1,2-3.1,3.1c-1.4,1.6-2.7,3.1-4.5,3.7c-1.6,0.5-3.6,0.1-5.6-0.3c-1.1-0.2-2.3-0.5-3.5-0.6V42.4L61.1,62.4z M62.6,64
	l3.6,3.6C59.6,73.9,50.8,77.8,41,78v-6c1,0.1,2,0.3,3.1,0.6c2.2,0.5,4.5,1,6.6,0.3c2.2-0.7,3.8-2.5,5.3-4.3c0.9-1.1,1.8-2.1,2.8-2.8
	c1-0.7,2.2-1.3,3.5-1.8C62.5,64,62.5,64,62.6,64z M39,78c-9.8-0.3-18.6-4.2-25.2-10.5l3.6-3.6c0.1,0,0.1,0.1,0.2,0.1
	c1.3,0.6,2.5,1.1,3.5,1.8c1,0.7,1.9,1.7,2.8,2.8c1.5,1.7,3.1,3.5,5.3,4.3c0.8,0.2,1.5,0.3,2.3,0.3c1.4,0,2.9-0.3,4.3-0.6
	c1-0.2,2.1-0.4,3.1-0.6L39,78L39,78z M19,62.4L39,42.4V70c-1.2,0.1-2.3,0.4-3.5,0.6c-2,0.4-4,0.9-5.6,0.3c-1.7-0.6-3.1-2.1-4.5-3.7
	c-1-1.1-2-2.2-3.1-3.1C21.4,63.5,20.2,63,19,62.4z M27.2,49.7c-1.5,0-2.8-1.3-2.8-2.8s1.3-2.8,2.8-2.8s2.8,1.3,2.8,2.8
	S28.7,49.7,27.2,49.7z M17,61.6c-1.4-0.6-2.6-1.4-3.4-2.4c-1-1.4-1.2-3.4-1.4-5.5c-0.1-1.5-0.3-3-0.7-4.4c-0.4-1.3-1.2-2.6-1.9-3.8
	c-0.9-1.5-1.7-3-2-4.4h5.2c-0.5,0.6-0.8,1.4-0.8,2.2c0,2.1,1.7,3.8,3.8,3.8s3.8-1.7,3.8-3.8c0-0.8-0.3-1.6-0.8-2.2h18.8l-5.7,5.7
	c-0.2-2.5-2.2-4.5-4.8-4.5c-2.7,0-4.8,2.2-4.8,4.8c0,2.6,2,4.6,4.5,4.8L17,61.6z M26,38.5c-1,0-1.8-0.8-1.8-1.8s0.8-1.8,1.8-1.8
	c1,0,1.8,0.8,1.8,1.8S27,38.5,26,38.5z M15.8,41.4c1,0,1.8,0.8,1.8,1.8S16.7,45,15.8,45c-1,0-1.8-0.8-1.8-1.8S14.8,41.4,15.8,41.4z
	 M7.5,39c0.3-1.5,1.1-2.9,2-4.4c0.7-1.2,1.5-2.5,1.9-3.8c0.5-1.4,0.6-2.9,0.7-4.4c0.2-2.1,0.4-4.1,1.4-5.5c0.8-1.1,2-1.8,3.4-2.4
	L37.6,39H29c0.5-0.6,0.8-1.4,0.8-2.2c0-2.1-1.7-3.8-3.8-3.8s-3.8,1.7-3.8,3.8c0,0.8,0.3,1.6,0.8,2.2H7.5z M78,39h-3.5
	c-0.3-2-1.3-3.8-2.3-5.5c-0.7-1.2-1.4-2.3-1.7-3.4c-0.4-1.2-0.5-2.5-0.7-4c-0.2-2.3-0.5-4.6-1.8-6.5c-0.9-1.2-2.1-2.1-3.5-2.7l3-3
	C73.8,20.4,77.8,29.2,78,39z M67.6,66.2l-3.1-3.1c1.3-0.7,2.6-1.5,3.5-2.7c1.4-1.9,1.6-4.2,1.8-6.5c0.1-1.4,0.3-2.8,0.7-4
	c0.4-1.1,1-2.2,1.7-3.4c1-1.7,2.1-3.5,2.3-5.5H78C77.8,50.7,73.9,59.5,67.6,66.2z M2,41h3.5c0.3,2,1.3,3.8,2.3,5.5
	c0.7,1.2,1.4,2.3,1.7,3.4c0.4,1.2,0.5,2.5,0.7,4c0.2,2.3,0.5,4.6,1.8,6.5c0.9,1.2,2.1,2.1,3.5,2.7l-3.1,3.1C6.2,59.5,2.3,50.7,2,41z
	"/>
<path d="M53.3,16.4c0-2.7-2.2-4.8-4.8-4.8s-4.8,2.2-4.8,4.8s2.2,4.8,4.8,4.8S53.3,19,53.3,16.4z M51.3,16.4c0,1.5-1.3,2.8-2.8,2.8
	s-2.8-1.3-2.8-2.8s1.3-2.8,2.8-2.8S51.3,14.8,51.3,16.4z"/>
<path d="M37.1,61.3c0-2.7-2.2-4.8-4.8-4.8s-4.8,2.2-4.8,4.8s2.2,4.8,4.8,4.8S37.1,63.9,37.1,61.3z M35.1,61.3c0,1.5-1.3,2.8-2.8,2.8
	s-2.8-1.3-2.8-2.8s1.3-2.8,2.8-2.8S35.1,59.7,35.1,61.3z"/>
<path d="M58.8,33.3c0-2.1-1.7-3.8-3.8-3.8c-2.1,0-3.8,1.7-3.8,3.8s1.7,3.8,3.8,3.8C57.1,37.1,58.8,35.4,58.8,33.3z M56.8,33.3
	c0,1-0.8,1.8-1.8,1.8s-1.8-0.8-1.8-1.8s0.8-1.8,1.8-1.8S56.8,32.4,56.8,33.3z"/>
<path d="M65.8,53.2c0-2.1-1.7-3.8-3.8-3.8s-3.8,1.7-3.8,3.8s1.7,3.8,3.8,3.8S65.8,55.2,65.8,53.2z M63.8,53.2c0,1-0.8,1.8-1.8,1.8
	c-1,0-1.8-0.8-1.8-1.8s0.8-1.8,1.8-1.8S63.8,52.2,63.8,53.2z"/>
<path d="M52.3,65.5c0-2.1-1.7-3.8-3.8-3.8s-3.8,1.7-3.8,3.8s1.7,3.8,3.8,3.8S52.3,67.6,52.3,65.5z M50.3,65.5c0,1-0.8,1.8-1.8,1.8
	s-1.8-0.8-1.8-1.8s0.8-1.8,1.8-1.8S50.3,64.5,50.3,65.5z"/>
<path d="M66,30.4l-1.3-5.5c-0.2-1.1-1.3-1.7-2.4-1.5l-1.5,0.3c-1.1,0.2-1.7,1.3-1.5,2.4l1.3,5.5c0.2,0.9,1,1.5,1.9,1.5
	c0.1,0,0.3,0,0.4-0.1l1.5-0.3C65.6,32.6,66.3,31.5,66,30.4z M62.6,31.2L62.6,31.2l0.2,1L62.6,31.2z M64.1,30.9l-1.5,0.3l-1.3-5.5
	l1.5-0.3L64.1,30.9z"/>
<path d="M48.4,58.3l0.2-5.6c0-1.1-0.8-2-1.9-2.1l-1.5-0.1c-1.1,0-2,0.8-2.1,1.9l-0.2,5.6c0,0.5,0.2,1,0.5,1.4
	c0.4,0.4,0.9,0.6,1.4,0.6l1.5,0.1c0,0,0.1,0,0.1,0c0.5,0,1-0.2,1.4-0.5C48.2,59.3,48.4,58.8,48.4,58.3z M44.9,58.1l0,1L44.9,58.1
	C44.9,58.1,44.9,58.1,44.9,58.1z M46.6,52.6l-0.2,5.6l-1.5-0.1l0.2-5.6L46.6,52.6z"/>
<path d="M14.3,29.9c-0.2,0.5-0.2,1,0,1.5c0.2,0.5,0.6,0.9,1.1,1.1l1.4,0.6c0.3,0.1,0.5,0.2,0.8,0.2c0.8,0,1.5-0.5,1.8-1.2l2.2-5.2
	c0.2-0.5,0.2-1,0-1.5c-0.2-0.5-0.6-0.9-1.1-1.1l-1.4-0.6c-1-0.4-2.2,0-2.6,1.1L14.3,29.9z M16.2,30.7l2.2-5.2l1.4,0.6l-2.2,5.2
	L16.2,30.7z M15.8,31.6l0.4-0.9c0,0,0,0,0,0L15.8,31.6z"/>
<path d="M23.8,18c-0.1,0.5,0.1,1,0.4,1.5l1,1.2c0.3,0.4,0.8,0.7,1.3,0.7c0.1,0,0.2,0,0.2,0c0.4,0,0.9-0.1,1.2-0.4l4.4-3.5
	c0.4-0.3,0.7-0.8,0.7-1.3c0.1-0.5-0.1-1.1-0.4-1.5l-1-1.2c-0.3-0.4-0.8-0.7-1.3-0.7c-0.5-0.1-1,0.1-1.5,0.4l-4.4,3.5
	C24.1,17,23.8,17.5,23.8,18z M31.1,16l0.8-0.6L31.1,16C31.1,16,31.1,16,31.1,16z M25.8,18.2l4.4-3.5l0.9,1.2l-4.4,3.5L25.8,18.2z"/>
<path d="M14.1,55.5l1,1.2c0.3,0.4,0.8,0.7,1.3,0.7c0.1,0,0.2,0,0.2,0c0.4,0,0.9-0.1,1.2-0.4l4.4-3.5c0.4-0.3,0.7-0.8,0.7-1.3
	c0.1-0.5-0.1-1-0.4-1.5l-1-1.2c-0.3-0.4-0.8-0.7-1.3-0.7c-0.5-0.1-1,0.1-1.5,0.4l-4.4,3.5C13.6,53.4,13.5,54.7,14.1,55.5z M21.1,52
	l0.8-0.6L21.1,52L21.1,52z M15.7,54.3l4.4-3.5l0.9,1.2l-4.4,3.5L15.7,54.3z"/>
</svg>
