<?xml version="1.0" encoding="utf-8"?>
<!-- Generator: Adobe Illustrator 21.1.0, SVG Export Plug-In . SVG Version: 6.00 Build 0)  -->
<svg version="1.1" id="Layer_1" xmlns="http://www.w3.org/2000/svg" xmlns:xlink="http://www.w3.org/1999/xlink" x="0px" y="0px"
	 viewBox="0 0 77.9 77.6" style="enable-background:new 0 0 77.9 77.6;" xml:space="preserve">
<path d="M47.7,5.2L5.2,47.6c-6.9,6.9-6.9,18,0,24.9c3.4,3.4,7.9,5.1,12.5,5.1s9-1.7,12.5-5.1L72.7,30c6.9-6.9,6.9-18,0-24.9
	C65.7-1.7,54.6-1.7,47.7,5.2z M71.2,28.6L28.7,71.1c-6.1,6.1-16,6.1-22.1,0s-6.1-16,0-22.1L49.1,6.5c6.1-6.1,16-6.1,22.1,0
	C77.3,12.7,77.3,22.6,71.2,28.6z"/>
<path d="M14.4,47.7c-0.4-0.2-0.8-0.1-1.1,0.2l-0.2,0.2c-0.3,0.3-0.4,0.7-0.2,1.1c0.2,0.4,4.2,10,15.5,15.5c0.1,0.1,0.3,0.1,0.4,0.1
	c0.3,0,0.5-0.1,0.7-0.3l0.2-0.2c0.3-0.3,0.4-0.8,0.2-1.1C24.3,51.8,14.8,47.8,14.4,47.7z M16.1,50.8c2.7,1.7,7.1,5,10.6,10.6
	C21,58,17.7,53.6,16.1,50.8z"/>
<path d="M22.8,39.2c-0.4-0.2-0.8-0.1-1.1,0.2l-0.2,0.2c-0.3,0.3-0.4,0.7-0.2,1.1c0.2,0.4,4.2,10,15.5,15.5c0.1,0.1,0.3,0.1,0.4,0.1
	c0.3,0,0.5-0.1,0.7-0.3l0.2-0.2c0.3-0.3,0.4-0.8,0.2-1.1C32.8,43.4,23.2,39.4,22.8,39.2z M24.5,42.4c2.7,1.7,7.1,5,10.6,10.6
	C29.5,49.6,26.1,45.1,24.5,42.4z"/>
<path d="M31.2,30.8c-0.4-0.2-0.8-0.1-1.1,0.2l-0.2,0.2c-0.3,0.3-0.4,0.7-0.2,1.1c0.2,0.4,4.2,10,15.5,15.5c0.1,0.1,0.3,0.1,0.4,0.1
	c0.3,0,0.5-0.1,0.7-0.3l0.2-0.2c0.3-0.3,0.4-0.8,0.2-1.1C41.2,35,31.6,31,31.2,30.8z M32.9,34c2.7,1.7,7.1,5,10.6,10.6
	C37.9,41.1,34.6,36.7,32.9,34z"/>
<path d="M39.7,22.4c-0.4-0.2-0.8-0.1-1.1,0.2l-0.2,0.1c-0.3,0.3-0.4,0.7-0.2,1.1c0.2,0.4,4.2,10,15.5,15.5c0.1,0.1,0.3,0.1,0.4,0.1
	c0.3,0,0.5-0.1,0.7-0.3l0.2-0.2c0.3-0.3,0.4-0.8,0.2-1.1C49.6,26.5,40.1,22.5,39.7,22.4z M41.4,25.5c2.7,1.7,7.1,5,10.6,10.6
	C46.4,32.7,43,28.2,41.4,25.5z"/>
<path d="M48.1,13.9c-0.4-0.2-0.8-0.1-1.1,0.2l-0.2,0.2c-0.3,0.3-0.4,0.7-0.2,1.1s4.2,10,15.5,15.5c0.1,0.1,0.3,0.1,0.4,0.1
	c0.3,0,0.5-0.1,0.7-0.3l0.2-0.2c0.3-0.3,0.4-0.8,0.2-1.1C58.1,18.1,48.5,14.1,48.1,13.9z M49.8,17.1c2.7,1.7,7.1,5,10.6,10.6
	C54.8,24.2,51.5,19.8,49.8,17.1z"/>
</svg>
