<?xml version="1.0" encoding="utf-8"?>
<!-- Generator: Adobe Illustrator 21.1.0, SVG Export Plug-In . SVG Version: 6.00 Build 0)  -->
<svg version="1.1"
	 id="Layer_1" xmlns:cc="http://creativecommons.org/ns#" xmlns:dc="http://purl.org/dc/elements/1.1/" xmlns:inkscape="http://www.inkscape.org/namespaces/inkscape" xmlns:rdf="http://www.w3.org/1999/02/22-rdf-syntax-ns#" xmlns:sodipodi="http://sodipodi.sourceforge.net/DTD/sodipodi-0.dtd" xmlns:svg="http://www.w3.org/2000/svg"
	 xmlns="http://www.w3.org/2000/svg" xmlns:xlink="http://www.w3.org/1999/xlink" x="0px" y="0px" viewBox="0 0 88 87.9"
	 style="enable-background:new 0 0 88 87.9;" xml:space="preserve">
<g transform="translate(0,-952.36218)">
	<path d="M31.8,952.4c-5.5,0.1-10.8,3.8-13.5,10.7c-7,2.6-12,7.3-14.5,13c-2.4,5.5-2.5,12-0.2,18.4c-0.9,0-1.9,0-2.8,0
		c-0.5,0-0.9,0.5-0.9,1c0,12,3.8,23.1,9.8,31.3c6,8.2,14.3,13.4,23.1,13.5c7.6,0.2,16.1,0.1,22.1,0c8.9,0,17.2-5.3,23.2-13.5
		c6-8.2,9.8-19.3,9.8-31.3c0-0.5-0.5-1-1-1h-5.1c2-2.8,3.5-5.3,3.9-7.8c0.5-2.8-0.4-5.8-2.7-9.1c3.3-8,1.3-14.8-3.2-18.4
		c-4.4-3.6-11.1-4.1-16.8-0.4c-2.7-2.3-6-3-9.2-2.4c-3,0.6-5.8,2.3-7.9,4.9C42.5,955.4,37.1,952.2,31.8,952.4L31.8,952.4z
		 M31.9,954.4c4.6-0.1,9.5,2.6,12.9,8.2c-0.8,1.9-1,3.7-0.8,5.4c0.1,0.5,0.2,1.1,0.4,1.6l-17.8-7.3c-0.7-0.2-1,0.2-1.3,0.7
		c-0.5,1.9-0.9,3.8-1.1,5.5c-1.1-2.2-2.9-3.7-4.2-4.3C22.1,958.4,26.9,954.6,31.9,954.4z M62.4,960.6c0.3,0.3,0.9,0.4,1.3,0.1
		c5.2-3.7,11.1-3.2,15,0c3.9,3.2,5.8,9,2.5,16.5c-0.1,0.3-0.1,0.7,0.1,1c2.4,3.3,3,5.7,2.6,8.1c-0.4,2.4-2,4.9-4.4,8.2H50.3l5.4-5.6
		c2.7,0,5.1,0.2,6.6,1.7c0.4,0.4,1,0.4,1.4,0s0.4-1,0-1.4c-1.7-1.7-4-2.1-6.2-2.2l6.3-6.6c3.1,0,5.9,0.2,7.5,1.7
		c0.4,0.4,1,0.4,1.4,0c0.4-0.4,0.4-1,0-1.4c-1.9-1.9-4.6-2.2-7.1-2.2l6.1-6.4c0.4-0.4,0.2-1.1-0.2-1.5c-0.5-0.3-0.8-0.1-1.2,0.1
		l-5.6,5.8c-0.4-2.5-1.3-5.1-3-6.8c-0.2-0.3-0.6-0.4-0.9-0.3c-0.7,0.1-1,1.2-0.5,1.7c1.5,1.5,2.4,4.6,2.7,7.3l-7.2,7.5
		c-0.3-2.8-1.2-5.8-3.1-7.6c-0.2-0.3-0.6-0.4-0.9-0.3c-0.7,0.1-1,1.2-0.5,1.7c1.6,1.6,2.7,5.4,2.7,8.1l-6.5,6.8h-5.4
		c0.6-1.3,0.9-2.6,0.9-4.1c0-6.8,2-12.7,4.8-16.4c0.2-0.3,0.3-0.7,0.1-1c-1-2-1.7-3.6-1.9-5.2c-0.5-4.8,4.2-8.5,8.4-9.4
		C57.3,957.7,60.6,958.9,62.4,960.6L62.4,960.6z M27.9,965l6.9,2.8c-0.7,0.1-1.3,0.7-1.3,1.5c0,0.8,0.7,1.5,1.5,1.5s1.5-0.7,1.5-1.5
		c0-0.3-0.1-0.7-0.3-0.9l4,1.6c-0.4,0.3-0.7,0.7-0.7,1.3c0,0.8,0.7,1.5,1.5,1.5c1.1-0.2,1.5-0.9,1.5-1.8l2.9,1.2
		c0.3,0.4,0.3,0.9,0.4,1.2c-0.3-0.6-1-1.1-1.8-1.1c-1.1,0-2,0.9-2,2c0,1.1,0.9,2,2,2c0,0,0.1,0,0.1,0c-0.8,1.6-1.5,3.4-2,5.2
		c-0.9-0.6-1.8-1.4-2.9-2.3c1-0.1,1.8-0.9,1.8-2c0-1.1-0.9-2-2-2c-1.1,0-2,0.9-2,1.9c-1-0.9-2-2-2.9-3
		C31.8,971.3,29.3,968.2,27.9,965L27.9,965z M17.7,965.4c3.1,1.7,5,4,6.3,6.4c0,4.1,0.8,7.8,2,11.5c-1.7,1.7-2.8,4-2.9,6.6
		c-1.2-2.1-3.5-3.4-6-3.4c-3.9,0-7,3.1-7,7c0,0.4,0,0.7,0.1,1.1H5.8c-2.5-6.2-2.4-12.4-0.1-17.6C8,971.3,13.2,967.4,17.7,965.4z
		 M26.5,966.9c1.4,2.9,3.7,5.9,6.1,8.7c3.1,3.5,6.4,6.4,9.1,8.1c-0.1,0.4-0.2,0.9-0.2,1.3c-1.8-2.8-4.9-4.6-8.4-4.6
		c-2,0-3.8,0.6-5.4,1.6C26.2,977.3,25.5,972.6,26.5,966.9L26.5,966.9z M37.5,971.3c-0.8,0-1.5,0.7-1.5,1.5c0,0.8,0.7,1.5,1.5,1.5
		s1.5-0.7,1.5-1.5S38.3,971.3,37.5,971.3z M2.1,996.5h83.9c-0.1,3.4-0.5,6.7-1.1,10H3.2C2.5,1003.2,2.1,999.9,2.1,996.5z"/>
</g>
</svg>
